<mxfile host="app.diagrams.net" agent="Mozilla/5.0 (Windows NT 10.0; Win64; x64) AppleWebKit/537.36 (KHTML, like Gecko) Chrome/134.0.0.0 Safari/537.36" version="26.1.1">
  <diagram name="第 1 页" id="wHzBXlku00ZtSIDsFbDa">
    <mxGraphModel dx="1143" dy="1011" grid="1" gridSize="10" guides="1" tooltips="1" connect="1" arrows="1" fold="1" page="0" pageScale="1" pageWidth="827" pageHeight="1169" math="0" shadow="0">
      <root>
        <mxCell id="0" />
        <mxCell id="1" parent="0" />
        <mxCell id="oWhIIgTF0E4kg4fIcXJA-7" value="" style="rounded=0;whiteSpace=wrap;html=1;dashed=1;" vertex="1" parent="1">
          <mxGeometry x="211.75" y="-30" width="180" height="240" as="geometry" />
        </mxCell>
        <mxCell id="oWhIIgTF0E4kg4fIcXJA-45" style="edgeStyle=orthogonalEdgeStyle;shape=connector;rounded=0;orthogonalLoop=1;jettySize=auto;html=1;strokeColor=default;align=center;verticalAlign=middle;fontFamily=Helvetica;fontSize=12;fontColor=default;labelBackgroundColor=default;startSize=8;endArrow=classic;endSize=8;" edge="1" parent="1" source="oWhIIgTF0E4kg4fIcXJA-1">
          <mxGeometry relative="1" as="geometry">
            <mxPoint x="302" y="140" as="targetPoint" />
            <Array as="points">
              <mxPoint x="222" y="250" />
              <mxPoint x="222" y="140" />
              <mxPoint x="242" y="140" />
            </Array>
          </mxGeometry>
        </mxCell>
        <mxCell id="oWhIIgTF0E4kg4fIcXJA-1" value="时序知识图谱" style="shape=cylinder3;whiteSpace=wrap;html=1;boundedLbl=1;backgroundOutline=1;size=15;" vertex="1" parent="1">
          <mxGeometry x="271.75" y="220" width="78.25" height="60" as="geometry" />
        </mxCell>
        <mxCell id="oWhIIgTF0E4kg4fIcXJA-2" value="" style="rounded=0;whiteSpace=wrap;html=1;dashed=1;" vertex="1" parent="1">
          <mxGeometry x="-20" y="150" width="181.5" height="210" as="geometry" />
        </mxCell>
        <mxCell id="oWhIIgTF0E4kg4fIcXJA-4" value="知识可视化模块" style="text;html=1;align=center;verticalAlign=middle;resizable=0;points=[];autosize=1;strokeColor=none;fillColor=none;fontSize=16;" vertex="1" parent="1">
          <mxGeometry x="-1" y="161" width="140" height="30" as="geometry" />
        </mxCell>
        <mxCell id="oWhIIgTF0E4kg4fIcXJA-5" value="" style="rounded=0;whiteSpace=wrap;html=1;dashed=1;" vertex="1" parent="1">
          <mxGeometry x="233.5" y="290" width="136.5" height="170" as="geometry" />
        </mxCell>
        <mxCell id="oWhIIgTF0E4kg4fIcXJA-10" value="知识推理模块" style="text;html=1;align=center;verticalAlign=middle;resizable=0;points=[];autosize=1;strokeColor=none;fillColor=none;fontSize=16;" vertex="1" parent="1">
          <mxGeometry x="226.75" y="-30" width="120" height="30" as="geometry" />
        </mxCell>
        <mxCell id="oWhIIgTF0E4kg4fIcXJA-11" value="知识查询模块" style="text;html=1;align=center;verticalAlign=middle;resizable=0;points=[];autosize=1;strokeColor=none;fillColor=none;fontSize=16;" vertex="1" parent="1">
          <mxGeometry x="241.75" y="290" width="120" height="30" as="geometry" />
        </mxCell>
        <mxCell id="oWhIIgTF0E4kg4fIcXJA-38" style="edgeStyle=none;curved=1;rounded=0;orthogonalLoop=1;jettySize=auto;html=1;entryX=0.5;entryY=1;entryDx=0;entryDy=0;fontSize=12;startSize=8;endSize=8;" edge="1" parent="1" source="oWhIIgTF0E4kg4fIcXJA-13" target="oWhIIgTF0E4kg4fIcXJA-22">
          <mxGeometry relative="1" as="geometry" />
        </mxCell>
        <mxCell id="oWhIIgTF0E4kg4fIcXJA-13" value="生成查询语句" style="rounded=0;whiteSpace=wrap;html=1;" vertex="1" parent="1">
          <mxGeometry x="255.75" y="420" width="92" height="30" as="geometry" />
        </mxCell>
        <mxCell id="oWhIIgTF0E4kg4fIcXJA-36" style="edgeStyle=none;curved=1;rounded=0;orthogonalLoop=1;jettySize=auto;html=1;entryX=0.5;entryY=1;entryDx=0;entryDy=0;fontSize=12;startSize=8;endSize=8;" edge="1" parent="1" source="oWhIIgTF0E4kg4fIcXJA-14" target="oWhIIgTF0E4kg4fIcXJA-16">
          <mxGeometry relative="1" as="geometry" />
        </mxCell>
        <mxCell id="oWhIIgTF0E4kg4fIcXJA-14" value="实体、关系、时间信息抽取" style="rounded=0;whiteSpace=wrap;html=1;" vertex="1" parent="1">
          <mxGeometry x="241.75" y="160" width="120" height="30" as="geometry" />
        </mxCell>
        <mxCell id="oWhIIgTF0E4kg4fIcXJA-37" style="edgeStyle=none;curved=1;rounded=0;orthogonalLoop=1;jettySize=auto;html=1;entryX=0.5;entryY=1;entryDx=0;entryDy=0;fontSize=12;startSize=8;endSize=8;" edge="1" parent="1" source="oWhIIgTF0E4kg4fIcXJA-16" target="oWhIIgTF0E4kg4fIcXJA-17">
          <mxGeometry relative="1" as="geometry" />
        </mxCell>
        <mxCell id="oWhIIgTF0E4kg4fIcXJA-44" style="edgeStyle=orthogonalEdgeStyle;shape=connector;rounded=0;orthogonalLoop=1;jettySize=auto;html=1;entryX=1;entryY=0.5;entryDx=0;entryDy=0;strokeColor=default;align=center;verticalAlign=middle;fontFamily=Helvetica;fontSize=12;fontColor=default;labelBackgroundColor=default;startSize=8;endArrow=classic;endSize=8;" edge="1" parent="1" source="oWhIIgTF0E4kg4fIcXJA-16" target="oWhIIgTF0E4kg4fIcXJA-23">
          <mxGeometry relative="1" as="geometry">
            <Array as="points">
              <mxPoint x="200" y="105" />
              <mxPoint x="200" y="285" />
            </Array>
          </mxGeometry>
        </mxCell>
        <mxCell id="oWhIIgTF0E4kg4fIcXJA-16" value="预测答案实体" style="rounded=0;whiteSpace=wrap;html=1;" vertex="1" parent="1">
          <mxGeometry x="241.75" y="90" width="120" height="30" as="geometry" />
        </mxCell>
        <mxCell id="oWhIIgTF0E4kg4fIcXJA-39" style="edgeStyle=orthogonalEdgeStyle;rounded=0;orthogonalLoop=1;jettySize=auto;html=1;entryX=1;entryY=0.5;entryDx=0;entryDy=0;fontSize=12;startSize=8;endSize=8;" edge="1" parent="1" source="oWhIIgTF0E4kg4fIcXJA-17" target="oWhIIgTF0E4kg4fIcXJA-24">
          <mxGeometry relative="1" as="geometry" />
        </mxCell>
        <mxCell id="oWhIIgTF0E4kg4fIcXJA-17" value="生成推理路径" style="rounded=0;whiteSpace=wrap;html=1;" vertex="1" parent="1">
          <mxGeometry x="241.75" y="30" width="120" height="30" as="geometry" />
        </mxCell>
        <mxCell id="oWhIIgTF0E4kg4fIcXJA-43" style="edgeStyle=orthogonalEdgeStyle;shape=connector;rounded=0;orthogonalLoop=1;jettySize=auto;html=1;entryX=1;entryY=0.5;entryDx=0;entryDy=0;strokeColor=default;align=center;verticalAlign=middle;fontFamily=Helvetica;fontSize=12;fontColor=default;labelBackgroundColor=default;startSize=8;endArrow=classic;endSize=8;" edge="1" parent="1" source="oWhIIgTF0E4kg4fIcXJA-22" target="oWhIIgTF0E4kg4fIcXJA-25">
          <mxGeometry relative="1" as="geometry" />
        </mxCell>
        <mxCell id="oWhIIgTF0E4kg4fIcXJA-22" value="返回查询结果" style="rounded=0;whiteSpace=wrap;html=1;" vertex="1" parent="1">
          <mxGeometry x="255.75" y="320" width="92" height="30" as="geometry" />
        </mxCell>
        <mxCell id="oWhIIgTF0E4kg4fIcXJA-23" value="查询结果可视化" style="rounded=0;whiteSpace=wrap;html=1;" vertex="1" parent="1">
          <mxGeometry x="24.75" y="270" width="92" height="30" as="geometry" />
        </mxCell>
        <mxCell id="oWhIIgTF0E4kg4fIcXJA-24" value="推理路径可视化" style="rounded=0;whiteSpace=wrap;html=1;" vertex="1" parent="1">
          <mxGeometry x="24.75" y="210" width="92" height="30" as="geometry" />
        </mxCell>
        <mxCell id="oWhIIgTF0E4kg4fIcXJA-25" value="知识图谱可视化" style="rounded=0;whiteSpace=wrap;html=1;" vertex="1" parent="1">
          <mxGeometry x="24.75" y="320" width="92" height="30" as="geometry" />
        </mxCell>
        <mxCell id="oWhIIgTF0E4kg4fIcXJA-28" value="时间" style="rounded=0;whiteSpace=wrap;html=1;" vertex="1" parent="1">
          <mxGeometry x="450" y="350" width="40" height="30" as="geometry" />
        </mxCell>
        <mxCell id="oWhIIgTF0E4kg4fIcXJA-29" value="问题" style="rounded=0;whiteSpace=wrap;html=1;" vertex="1" parent="1">
          <mxGeometry x="450" y="170" width="40" height="30" as="geometry" />
        </mxCell>
        <mxCell id="oWhIIgTF0E4kg4fIcXJA-32" style="edgeStyle=orthogonalEdgeStyle;rounded=0;orthogonalLoop=1;jettySize=auto;html=1;fontSize=12;startSize=8;endSize=8;endArrow=none;startFill=0;" edge="1" parent="1">
          <mxGeometry relative="1" as="geometry">
            <mxPoint x="450" y="360" as="sourcePoint" />
            <mxPoint x="410" y="435" as="targetPoint" />
          </mxGeometry>
        </mxCell>
        <mxCell id="oWhIIgTF0E4kg4fIcXJA-33" style="edgeStyle=none;curved=1;rounded=0;orthogonalLoop=1;jettySize=auto;html=1;entryX=0.982;entryY=0.853;entryDx=0;entryDy=0;entryPerimeter=0;fontSize=12;startSize=8;endSize=8;" edge="1" parent="1" target="oWhIIgTF0E4kg4fIcXJA-5">
          <mxGeometry relative="1" as="geometry">
            <mxPoint x="455" y="435.00146402881205" as="sourcePoint" />
          </mxGeometry>
        </mxCell>
        <mxCell id="oWhIIgTF0E4kg4fIcXJA-34" value="实体" style="rounded=0;whiteSpace=wrap;html=1;" vertex="1" parent="1">
          <mxGeometry x="450" y="420" width="40" height="30" as="geometry" />
        </mxCell>
        <mxCell id="oWhIIgTF0E4kg4fIcXJA-35" style="edgeStyle=none;curved=1;rounded=0;orthogonalLoop=1;jettySize=auto;html=1;entryX=0.992;entryY=0.901;entryDx=0;entryDy=0;entryPerimeter=0;fontSize=12;startSize=8;endSize=8;" edge="1" parent="1" source="oWhIIgTF0E4kg4fIcXJA-29" target="oWhIIgTF0E4kg4fIcXJA-7">
          <mxGeometry relative="1" as="geometry" />
        </mxCell>
        <mxCell id="oWhIIgTF0E4kg4fIcXJA-48" style="edgeStyle=orthogonalEdgeStyle;shape=connector;rounded=0;orthogonalLoop=1;jettySize=auto;html=1;strokeColor=default;align=center;verticalAlign=middle;fontFamily=Helvetica;fontSize=12;fontColor=default;labelBackgroundColor=default;startSize=8;endArrow=classic;endSize=8;" edge="1" parent="1">
          <mxGeometry relative="1" as="geometry">
            <mxPoint x="271.96999999999997" y="257.5" as="sourcePoint" />
            <mxPoint x="299.96999999999997" y="380" as="targetPoint" />
            <Array as="points">
              <mxPoint x="220" y="257.5" />
              <mxPoint x="220" y="379.5" />
            </Array>
          </mxGeometry>
        </mxCell>
      </root>
    </mxGraphModel>
  </diagram>
</mxfile>
